<svg width="527" height="165" viewBox="0 0 527 165" fill="none" xmlns="http://www.w3.org/2000/svg">
<mask id="path-1-outside-1_15_2608" maskUnits="userSpaceOnUse" x="-0.414062" y="-0.507812" width="527" height="165" fill="black">
<rect fill="white" x="-0.414062" y="-0.507812" width="527" height="165"/>
<path d="M31.6484 141.125C26.5859 141.125 23 137.398 23 132.195V52.4609C23 47.1875 26.5859 43.5312 31.6484 43.5312C36.6406 43.5312 40.1562 47.1875 40.1562 52.4609V54.5703C46.0625 47.0469 54.9219 43.0391 65.6797 43.0391C87.3359 43.0391 103.578 59.4219 103.578 83.8203C103.578 108.148 87.3359 124.602 65.6797 124.602C54.7109 124.602 46.2734 121.227 40.1562 113.773V132.195C40.1562 137.398 36.6406 141.125 31.6484 141.125ZM39.8047 83.75C39.8047 97.6719 48.9453 108.711 62.7969 108.711C75.8047 108.711 85.8594 99.1484 85.8594 83.8203C85.8594 68.4219 75.8047 58.9297 62.7969 58.9297C48.9453 58.9297 39.8047 69.8984 39.8047 83.75ZM133.405 124.391C117.373 124.391 106.897 115.602 106.897 101.961C106.897 89.9375 114.139 82.4141 129.045 79.1094L146.272 75.3125C152.53 73.9766 154.428 72.2188 154.428 68.0703C154.428 61.8828 149.366 58.0859 140.928 58.0859C133.475 58.0859 127.006 61.25 122.295 66.5234C118.991 69.6875 116.811 71.0938 113.998 71.0938C109.85 71.0938 106.967 68.4922 106.967 64.5547C106.967 61.5312 108.303 58.6484 110.623 55.9766C117.303 47.6797 127.991 43.0391 141.069 43.0391C160.405 43.0391 171.514 52.3203 171.514 69.6172V102.453C171.514 106.039 172.85 107.797 175.733 107.797C177.42 107.797 178.616 106.953 179.741 105.547C180.936 104.211 181.92 103.648 183.467 103.648C186.28 103.648 188.319 106.18 188.319 109.625C188.319 112.508 187.405 114.898 185.436 117.5C182.553 121.367 177.631 124.25 172.217 124.25C164.905 124.25 159.35 120.664 156.537 114.547C151.264 120.805 143.037 124.391 133.405 124.391ZM125.037 100.766C125.037 106.32 130.03 110.047 137.553 110.047C147.186 110.047 154.498 103.227 154.498 94.2266V84.8047C152.741 86.2812 150.069 87.4766 146.131 88.3203L137.342 90.1484C128.905 91.9062 125.037 95.3516 125.037 100.766ZM215.898 124.602C202.258 124.602 192.133 115.391 192.133 100.484V60.6875H181.586C176.875 60.6875 173.5 57.4531 173.5 52.8828C173.5 48.3828 176.875 45.1484 181.586 45.1484H192.133V31.8594C192.133 26.6562 195.718 23 200.781 23C205.773 23 209.289 26.6562 209.289 31.8594V45.1484H229.679C234.32 45.1484 237.695 48.3828 237.695 52.8828C237.695 57.4531 234.32 60.6875 229.679 60.6875H209.289V98.0938C209.289 104.773 212.734 108.148 218.008 108.148C221.523 108.148 224.195 106.391 226.937 104.211C228.554 102.945 230.523 101.68 233.125 101.68C237.062 101.68 239.875 104.562 239.875 108.641C239.875 111.805 238.328 114.898 235.304 117.641C230.875 121.719 223.492 124.602 215.898 124.602ZM264.509 124.602C250.869 124.602 240.744 115.391 240.744 100.484V60.6875H230.197C225.486 60.6875 222.111 57.4531 222.111 52.8828C222.111 48.3828 225.486 45.1484 230.197 45.1484H240.744V31.8594C240.744 26.6562 244.33 23 249.392 23C254.384 23 257.9 26.6562 257.9 31.8594V45.1484H278.291C282.931 45.1484 286.306 48.3828 286.306 52.8828C286.306 57.4531 282.931 60.6875 278.291 60.6875H257.9V98.0938C257.9 104.773 261.345 108.148 266.619 108.148C270.134 108.148 272.806 106.391 275.548 104.211C277.166 102.945 279.134 101.68 281.736 101.68C285.673 101.68 288.486 104.562 288.486 108.641C288.486 111.805 286.939 114.898 283.916 117.641C279.486 121.719 272.103 124.602 264.509 124.602ZM327.875 124.602C302.773 124.602 286.391 108.641 286.391 83.6094C286.391 59.4219 302.422 43.0391 325.484 43.0391C348.477 43.0391 363.102 58.1562 363.102 79.3203C363.102 85.9297 360.008 89.0234 353.961 89.0234H303.758C305.023 101.117 314.586 108.781 328.508 108.781C336.523 108.781 342.359 106.391 346.859 100.906C349.18 98.7969 351.5 97.4609 354.453 97.4609C359.023 97.4609 361.062 100.203 361.062 104.422C361.062 106.742 360.008 109.133 358.602 111.242C352.625 120.242 340.109 124.602 327.875 124.602ZM303.758 75.1719H346.016C344.75 63.7109 336.734 57.0312 324.852 57.0312C313.18 57.0312 304.953 63.9922 303.758 75.1719ZM384.986 81.2188V115.18C384.986 120.383 381.47 124.039 376.478 124.039C371.415 124.039 367.829 120.383 367.829 115.18V52.4609C367.829 47.1875 371.415 43.5312 376.478 43.5312C381.47 43.5312 384.986 47.1875 384.986 52.4609V53.4453C389.345 46.7656 396.658 43.0391 405.236 43.0391C411.493 43.0391 416.486 45.0781 419.65 48.0312C422.673 50.9141 424.29 54.4297 424.29 58.2266C424.29 63.7812 421.126 67.6484 415.572 67.6484C412.618 67.6484 410.158 65.6797 408.611 63.8516C406.501 61.4609 403.548 59.5625 399.611 59.5625C391.525 59.5625 384.986 67.6484 384.986 81.2188ZM439.281 124.039C434.218 124.039 430.633 120.383 430.633 115.18V52.4609C430.633 47.1875 434.218 43.5312 439.281 43.5312C444.273 43.5312 447.789 47.1875 447.789 52.4609V54.0078C452.57 46.9062 461.289 43.0391 471.906 43.0391C490.961 43.0391 503.476 54.9219 503.476 76.0859V115.18C503.476 120.312 499.89 124.039 494.898 124.039C489.836 124.039 486.32 120.242 486.32 115.18V79.1094C486.32 65.3984 479.359 58.7891 468.109 58.7891C455.523 58.7891 447.789 67.4375 447.789 80.3047V115.18C447.789 120.383 444.273 124.039 439.281 124.039Z"/>
</mask>
<path d="M31.6484 141.125C26.5859 141.125 23 137.398 23 132.195V52.4609C23 47.1875 26.5859 43.5312 31.6484 43.5312C36.6406 43.5312 40.1562 47.1875 40.1562 52.4609V54.5703C46.0625 47.0469 54.9219 43.0391 65.6797 43.0391C87.3359 43.0391 103.578 59.4219 103.578 83.8203C103.578 108.148 87.3359 124.602 65.6797 124.602C54.7109 124.602 46.2734 121.227 40.1562 113.773V132.195C40.1562 137.398 36.6406 141.125 31.6484 141.125ZM39.8047 83.75C39.8047 97.6719 48.9453 108.711 62.7969 108.711C75.8047 108.711 85.8594 99.1484 85.8594 83.8203C85.8594 68.4219 75.8047 58.9297 62.7969 58.9297C48.9453 58.9297 39.8047 69.8984 39.8047 83.75ZM133.405 124.391C117.373 124.391 106.897 115.602 106.897 101.961C106.897 89.9375 114.139 82.4141 129.045 79.1094L146.272 75.3125C152.53 73.9766 154.428 72.2188 154.428 68.0703C154.428 61.8828 149.366 58.0859 140.928 58.0859C133.475 58.0859 127.006 61.25 122.295 66.5234C118.991 69.6875 116.811 71.0938 113.998 71.0938C109.85 71.0938 106.967 68.4922 106.967 64.5547C106.967 61.5312 108.303 58.6484 110.623 55.9766C117.303 47.6797 127.991 43.0391 141.069 43.0391C160.405 43.0391 171.514 52.3203 171.514 69.6172V102.453C171.514 106.039 172.85 107.797 175.733 107.797C177.42 107.797 178.616 106.953 179.741 105.547C180.936 104.211 181.92 103.648 183.467 103.648C186.28 103.648 188.319 106.18 188.319 109.625C188.319 112.508 187.405 114.898 185.436 117.5C182.553 121.367 177.631 124.25 172.217 124.25C164.905 124.25 159.35 120.664 156.537 114.547C151.264 120.805 143.037 124.391 133.405 124.391ZM125.037 100.766C125.037 106.32 130.03 110.047 137.553 110.047C147.186 110.047 154.498 103.227 154.498 94.2266V84.8047C152.741 86.2812 150.069 87.4766 146.131 88.3203L137.342 90.1484C128.905 91.9062 125.037 95.3516 125.037 100.766ZM215.898 124.602C202.258 124.602 192.133 115.391 192.133 100.484V60.6875H181.586C176.875 60.6875 173.5 57.4531 173.5 52.8828C173.5 48.3828 176.875 45.1484 181.586 45.1484H192.133V31.8594C192.133 26.6562 195.718 23 200.781 23C205.773 23 209.289 26.6562 209.289 31.8594V45.1484H229.679C234.32 45.1484 237.695 48.3828 237.695 52.8828C237.695 57.4531 234.32 60.6875 229.679 60.6875H209.289V98.0938C209.289 104.773 212.734 108.148 218.008 108.148C221.523 108.148 224.195 106.391 226.937 104.211C228.554 102.945 230.523 101.68 233.125 101.68C237.062 101.68 239.875 104.562 239.875 108.641C239.875 111.805 238.328 114.898 235.304 117.641C230.875 121.719 223.492 124.602 215.898 124.602ZM264.509 124.602C250.869 124.602 240.744 115.391 240.744 100.484V60.6875H230.197C225.486 60.6875 222.111 57.4531 222.111 52.8828C222.111 48.3828 225.486 45.1484 230.197 45.1484H240.744V31.8594C240.744 26.6562 244.33 23 249.392 23C254.384 23 257.9 26.6562 257.9 31.8594V45.1484H278.291C282.931 45.1484 286.306 48.3828 286.306 52.8828C286.306 57.4531 282.931 60.6875 278.291 60.6875H257.9V98.0938C257.9 104.773 261.345 108.148 266.619 108.148C270.134 108.148 272.806 106.391 275.548 104.211C277.166 102.945 279.134 101.68 281.736 101.68C285.673 101.68 288.486 104.562 288.486 108.641C288.486 111.805 286.939 114.898 283.916 117.641C279.486 121.719 272.103 124.602 264.509 124.602ZM327.875 124.602C302.773 124.602 286.391 108.641 286.391 83.6094C286.391 59.4219 302.422 43.0391 325.484 43.0391C348.477 43.0391 363.102 58.1562 363.102 79.3203C363.102 85.9297 360.008 89.0234 353.961 89.0234H303.758C305.023 101.117 314.586 108.781 328.508 108.781C336.523 108.781 342.359 106.391 346.859 100.906C349.18 98.7969 351.5 97.4609 354.453 97.4609C359.023 97.4609 361.062 100.203 361.062 104.422C361.062 106.742 360.008 109.133 358.602 111.242C352.625 120.242 340.109 124.602 327.875 124.602ZM303.758 75.1719H346.016C344.75 63.7109 336.734 57.0312 324.852 57.0312C313.18 57.0312 304.953 63.9922 303.758 75.1719ZM384.986 81.2188V115.18C384.986 120.383 381.47 124.039 376.478 124.039C371.415 124.039 367.829 120.383 367.829 115.18V52.4609C367.829 47.1875 371.415 43.5312 376.478 43.5312C381.47 43.5312 384.986 47.1875 384.986 52.4609V53.4453C389.345 46.7656 396.658 43.0391 405.236 43.0391C411.493 43.0391 416.486 45.0781 419.65 48.0312C422.673 50.9141 424.29 54.4297 424.29 58.2266C424.29 63.7812 421.126 67.6484 415.572 67.6484C412.618 67.6484 410.158 65.6797 408.611 63.8516C406.501 61.4609 403.548 59.5625 399.611 59.5625C391.525 59.5625 384.986 67.6484 384.986 81.2188ZM439.281 124.039C434.218 124.039 430.633 120.383 430.633 115.18V52.4609C430.633 47.1875 434.218 43.5312 439.281 43.5312C444.273 43.5312 447.789 47.1875 447.789 52.4609V54.0078C452.57 46.9062 461.289 43.0391 471.906 43.0391C490.961 43.0391 503.476 54.9219 503.476 76.0859V115.18C503.476 120.312 499.89 124.039 494.898 124.039C489.836 124.039 486.32 120.242 486.32 115.18V79.1094C486.32 65.3984 479.359 58.7891 468.109 58.7891C455.523 58.7891 447.789 67.4375 447.789 80.3047V115.18C447.789 120.383 444.273 124.039 439.281 124.039Z" fill="url(#paint0_linear_15_2608)"/>
<path d="M40.1562 54.5703H17.1562V121.115L58.2474 68.7727L40.1562 54.5703ZM40.1562 113.773L57.9348 99.1816L17.1562 49.4973L17.1562 113.773H40.1562ZM31.6484 141.125V118.125C34.9708 118.125 38.9 119.458 41.9625 122.626C44.9718 125.739 46 129.422 46 132.195H23H0C0 149.36 13.1547 164.125 31.6484 164.125V141.125ZM23 132.195H46V52.4609H23H0V132.195H23ZM23 52.4609H46C46 55.1377 45.009 58.8702 41.9179 62.05C38.7881 65.2698 34.8424 66.5312 31.6484 66.5312V43.5312V20.5312C23.3919 20.5312 15.122 23.6208 8.93362 29.9871C2.78399 36.3134 0 44.5107 0 52.4609H23ZM31.6484 43.5312V66.5312C28.3092 66.5312 24.2796 65.1889 21.1436 61.9061C18.0762 58.6952 17.1562 55.0051 17.1562 52.4609H40.1562H63.1562C63.1562 44.6433 60.4785 36.4884 54.4053 30.131C48.2634 23.7018 39.9799 20.5312 31.6484 20.5312V43.5312ZM40.1562 52.4609H17.1562V54.5703H40.1562H63.1562V52.4609H40.1562ZM40.1562 54.5703L58.2474 68.7727C59.2179 67.5365 60.9954 66.0391 65.6797 66.0391V43.0391V20.0391C48.8484 20.0391 32.9071 26.5572 22.0651 40.3679L40.1562 54.5703ZM65.6797 43.0391V66.0391C73.4717 66.0391 80.5781 70.9308 80.5781 83.8203H103.578H126.578C126.578 47.9129 101.2 20.0391 65.6797 20.0391V43.0391ZM103.578 83.8203H80.5781C80.5781 96.6668 73.4459 101.602 65.6797 101.602V124.602V147.602C101.226 147.602 126.578 119.63 126.578 83.8203H103.578ZM65.6797 124.602V101.602C59.9742 101.602 58.7486 100.173 57.9348 99.1816L40.1562 113.773L22.3777 128.365C33.7983 142.28 49.4477 147.602 65.6797 147.602V124.602ZM40.1562 113.773H17.1562V132.195H40.1562H63.1562V113.773H40.1562ZM40.1562 132.195H17.1562C17.1562 129.555 18.1126 125.914 21.0994 122.77C24.167 119.541 28.1791 118.125 31.6484 118.125V141.125V164.125C50.4406 164.125 63.1562 148.975 63.1562 132.195H40.1562ZM39.8047 83.75H16.8047C16.8047 107.847 33.8548 131.711 62.7969 131.711V108.711V85.7109C62.4357 85.7109 62.4761 85.65 62.7385 85.7672C62.9912 85.88 63.1782 86.0378 63.2654 86.1355C63.4358 86.3264 62.8047 85.7344 62.8047 83.75H39.8047ZM62.7969 108.711V131.711C75.0968 131.711 87.0018 127.093 95.7878 117.952C104.571 108.814 108.859 96.6222 108.859 83.8203H85.8594H62.8594C62.8594 85.1311 62.6472 85.8399 62.5527 86.0917C62.4627 86.3314 62.4435 86.263 62.6243 86.0749C62.8048 85.8871 63.0163 85.7566 63.166 85.6952C63.3059 85.6379 63.2168 85.7109 62.7969 85.7109V108.711ZM85.8594 83.8203H108.859C108.859 71.0056 104.585 58.7947 95.7715 49.6449C86.9598 40.4964 75.0479 35.9297 62.7969 35.9297V58.9297V81.9297C63.239 81.9297 63.3398 82.0064 63.2022 81.9503C63.053 81.8895 62.8327 81.7558 62.6406 81.5563C62.4479 81.3563 62.4615 81.2761 62.5498 81.5116C62.6433 81.7608 62.8594 82.4798 62.8594 83.8203H85.8594ZM62.7969 58.9297V35.9297C33.9743 35.9297 16.8047 59.5898 16.8047 83.75H39.8047H62.8047C62.8047 81.8339 63.4143 81.2955 63.2206 81.5113C63.1241 81.6187 62.9341 81.7746 62.6904 81.8827C62.4381 81.9947 62.4145 81.9297 62.7969 81.9297V58.9297ZM129.045 79.1094L124.095 56.6485L124.081 56.6515L124.067 56.6546L129.045 79.1094ZM146.272 75.3125L141.47 52.8194L141.396 52.8352L141.321 52.8516L146.272 75.3125ZM122.295 66.5234L138.201 83.1365L138.85 82.5158L139.448 81.8463L122.295 66.5234ZM110.623 55.9766L127.989 71.0574L128.27 70.7338L128.539 70.4L110.623 55.9766ZM179.741 105.547L162.6 90.2106L162.177 90.6834L161.781 91.1789L179.741 105.547ZM185.436 117.5L167.096 103.621L167.045 103.687L166.996 103.754L185.436 117.5ZM156.537 114.547L177.435 104.939L162.299 72.0182L138.95 99.7257L156.537 114.547ZM154.498 84.8047H177.498V35.447L139.705 67.1935L154.498 84.8047ZM146.131 88.3203L150.815 110.838L150.883 110.824L150.95 110.81L146.131 88.3203ZM137.342 90.1484L132.658 67.6304L132.651 67.6319L137.342 90.1484ZM133.405 124.391V101.391C129.427 101.391 128.495 100.311 128.975 100.715C129.228 100.929 129.548 101.313 129.762 101.79C129.969 102.251 129.897 102.391 129.897 101.961H106.897H83.8969C83.8969 115.131 89.1867 127.327 99.3034 135.867C109.029 144.076 121.351 147.391 133.405 147.391V124.391ZM106.897 101.961H129.897C129.897 101.271 129.997 101.321 129.814 101.812C129.609 102.362 129.261 102.897 128.91 103.259C128.609 103.57 128.627 103.423 129.405 103.043C130.214 102.647 131.669 102.086 134.023 101.564L129.045 79.1094L124.067 56.6546C114.088 58.8669 103.771 63.0879 95.8522 71.2722C87.4091 79.9981 83.8969 90.9337 83.8969 101.961H106.897ZM129.045 79.1094L133.996 101.57L151.222 97.7734L146.272 75.3125L141.321 52.8516L124.095 56.6485L129.045 79.1094ZM146.272 75.3125L151.074 97.8056C154.678 97.0361 161.961 95.3215 168.036 89.8835C175.908 82.838 177.428 73.9169 177.428 68.0703H154.428H131.428C131.428 67.4705 131.479 65.5225 132.383 63.001C133.393 60.1855 135.122 57.6091 137.357 55.6087C139.365 53.8109 141.159 53.037 141.744 52.8061C142.316 52.5806 142.376 52.626 141.47 52.8194L146.272 75.3125ZM154.428 68.0703H177.428C177.428 57.9308 172.902 48.4895 164.552 42.2909C156.997 36.6817 148.226 35.0859 140.928 35.0859V58.0859V81.0859C142.068 81.0859 140.047 81.3886 137.132 79.2247C135.565 78.0618 134.003 76.3491 132.889 74.097C131.782 71.8584 131.428 69.717 131.428 68.0703H154.428ZM140.928 58.0859V35.0859C126.524 35.0859 113.943 41.3498 105.143 51.2005L122.295 66.5234L139.448 81.8463C139.831 81.4171 140.113 81.2607 140.233 81.2051C140.33 81.1603 140.516 81.0859 140.928 81.0859V58.0859ZM122.295 66.5234L106.389 49.9104C105.83 50.4459 105.577 50.6569 105.535 50.6906C105.498 50.7209 105.862 50.4187 106.566 50.0173C107.315 49.59 108.424 49.0634 109.851 48.6664C111.305 48.2618 112.722 48.0938 113.998 48.0938V71.0938V94.0938C126.471 94.0938 134.42 86.7574 138.201 83.1365L122.295 66.5234ZM113.998 71.0938V48.0938C116.718 48.0938 120.838 48.9982 124.518 52.3911C128.37 55.9433 129.967 60.6193 129.967 64.5547H106.967H83.9672C83.9672 72.4276 87.0054 80.3731 93.3367 86.2105C99.4952 91.8885 107.131 94.0938 113.998 94.0938V71.0938ZM106.967 64.5547H129.967C129.967 68.6911 128.078 70.9547 127.989 71.0574L110.623 55.9766L93.2577 40.8958C88.5279 46.3422 83.9672 54.3714 83.9672 64.5547H106.967ZM110.623 55.9766L128.539 70.4C129.985 68.6043 133.44 66.0391 141.069 66.0391V43.0391V20.0391C122.542 20.0391 104.622 26.755 92.708 41.5531L110.623 55.9766ZM141.069 43.0391V66.0391C147.399 66.0391 148.896 67.5824 148.516 67.2547C148.292 67.0614 148.166 66.8211 148.172 66.8349C148.213 66.936 148.514 67.7382 148.514 69.6172H171.514H194.514C194.514 55.7999 189.873 42.1835 178.569 32.4289C167.8 23.1363 154.074 20.0391 141.069 20.0391V43.0391ZM171.514 69.6172H148.514V102.453H171.514H194.514V69.6172H171.514ZM171.514 102.453H148.514C148.514 106.383 149.115 113.85 154.426 120.64C160.647 128.593 169.355 130.797 175.733 130.797V107.797V84.7969C179.227 84.7969 185.827 86.1217 190.659 92.2995C194.581 97.3139 194.514 102.11 194.514 102.453H171.514ZM175.733 107.797V130.797C187.135 130.797 194.26 124.215 197.701 119.915L179.741 105.547L161.781 91.1789C162.206 90.6478 163.627 88.9557 166.193 87.4299C169.083 85.7112 172.421 84.7969 175.733 84.7969V107.797ZM179.741 105.547L196.881 120.883C196.578 121.222 194.982 122.989 192.121 124.483C188.88 126.176 185.736 126.648 183.467 126.648V103.648V80.6484C179.651 80.6484 175.242 81.4019 170.823 83.7107C166.785 85.82 164.099 88.5359 162.6 90.2106L179.741 105.547ZM183.467 103.648V126.648C177.413 126.648 172.24 123.73 169.074 119.821C166.116 116.167 165.319 112.313 165.319 109.625H188.319H211.319C211.319 98.2442 203.275 80.6484 183.467 80.6484V103.648ZM188.319 109.625H165.319C165.319 108.504 165.52 107.106 166.044 105.689C166.531 104.373 167.071 103.653 167.096 103.621L185.436 117.5L203.776 131.379C208.149 125.601 211.319 118.456 211.319 109.625H188.319ZM185.436 117.5L166.996 103.754C167.615 102.924 168.29 102.383 168.989 102.011C169.727 101.619 170.821 101.25 172.217 101.25V124.25V147.25C185.667 147.25 197.136 140.288 203.876 131.246L185.436 117.5ZM172.217 124.25V101.25C172.388 101.25 173.495 101.322 174.891 102.196C176.31 103.084 177.107 104.227 177.435 104.939L156.537 114.547L135.64 124.155C142.367 138.786 156.315 147.25 172.217 147.25V124.25ZM156.537 114.547L138.95 99.7257C138.692 100.031 137.327 101.391 133.405 101.391V124.391V147.391C148.748 147.391 163.836 141.578 174.125 129.368L156.537 114.547ZM125.037 100.766H102.037C102.037 111.227 107.064 120.235 114.757 125.951C121.911 131.266 130.26 133.047 137.553 133.047V110.047V87.0469C137.559 87.0469 137.663 87.0471 137.857 87.0726C138.05 87.098 138.352 87.1511 138.744 87.2634C139.509 87.482 140.768 87.9697 142.191 89.0272C143.65 90.1114 145.198 91.741 146.358 93.9806C147.533 96.2489 148.037 98.6216 148.037 100.766H125.037ZM137.553 110.047V133.047C158.368 133.047 177.498 117.398 177.498 94.2266H154.498H131.498C131.498 92.2307 132.405 90.1342 133.945 88.6974C135.416 87.3244 136.887 87.0469 137.553 87.0469V110.047ZM154.498 94.2266H177.498V84.8047H154.498H131.498V94.2266H154.498ZM154.498 84.8047L139.705 67.1935C140.881 66.2058 141.818 65.7677 142.105 65.6456C142.377 65.5295 142.19 65.6427 141.312 65.8309L146.131 88.3203L150.95 110.81C156.805 109.555 163.541 107.247 169.292 102.416L154.498 84.8047ZM146.131 88.3203L141.447 65.8023L132.658 67.6304L137.342 90.1484L142.026 112.666L150.815 110.838L146.131 88.3203ZM137.342 90.1484L132.651 67.6319C126.681 68.8758 119.205 71.2768 112.934 76.73C105.659 83.0557 102.037 91.7119 102.037 100.766H125.037H148.037C148.037 102.203 147.767 104.217 146.79 106.415C145.801 108.639 144.415 110.314 143.118 111.442C140.89 113.379 139.566 113.179 142.033 112.665L137.342 90.1484ZM192.133 60.6875H215.133V37.6875H192.133V60.6875ZM192.133 45.1484V68.1484H215.133V45.1484H192.133ZM209.289 45.1484H186.289V68.1484H209.289V45.1484ZM209.289 60.6875V37.6875H186.289V60.6875H209.289ZM226.937 104.211L212.762 86.0983L212.694 86.1519L212.626 86.206L226.937 104.211ZM235.304 117.641L219.853 100.604L219.789 100.662L219.726 100.72L235.304 117.641ZM215.898 124.602V101.602C215.078 101.602 214.693 101.465 214.645 101.446C214.613 101.434 214.793 101.504 215.027 101.734C215.268 101.971 215.348 102.164 215.336 102.134C215.317 102.086 215.133 101.596 215.133 100.484H192.133H169.133C169.133 113.33 173.617 125.528 182.773 134.532C191.846 143.454 203.838 147.602 215.898 147.602V124.602ZM192.133 100.484H215.133V60.6875H192.133H169.133V100.484H192.133ZM192.133 60.6875V37.6875H181.586V60.6875V83.6875H192.133V60.6875ZM181.586 60.6875V37.6875C184.579 37.6875 188.464 38.7858 191.732 41.9335C195.061 45.1401 196.5 49.2897 196.5 52.8828H173.5H150.5C150.5 70.9611 164.993 83.6875 181.586 83.6875V60.6875ZM173.5 52.8828H196.5C196.5 56.6087 194.991 60.7743 191.679 63.9445C188.429 67.0546 184.575 68.1484 181.586 68.1484V45.1484V22.1484C165.134 22.1484 150.5 34.7393 150.5 52.8828H173.5ZM181.586 45.1484V68.1484H192.133V45.1484V22.1484H181.586V45.1484ZM192.133 45.1484H215.133V31.8594H192.133H169.133V45.1484H192.133ZM192.133 31.8594H215.133C215.133 34.6511 214.089 38.4019 211.005 41.5561C207.889 44.7439 203.97 46 200.781 46V23V0C192.529 0 184.286 3.08423 178.111 9.40091C171.969 15.6841 169.133 23.8645 169.133 31.8594H192.133ZM200.781 23V46C197.447 46 193.444 44.6634 190.321 41.4126C187.259 38.2261 186.289 34.5172 186.289 31.8594H209.289H232.289C232.289 23.9984 229.56 15.8598 223.493 9.54447C217.364 3.16474 209.107 0 200.781 0V23ZM209.289 31.8594H186.289V45.1484H209.289H232.289V31.8594H209.289ZM209.289 45.1484V68.1484H229.679V45.1484V22.1484H209.289V45.1484ZM229.679 45.1484V68.1484C226.567 68.1484 222.694 66.9964 219.474 63.8955C216.197 60.7401 214.695 56.6026 214.695 52.8828H237.695H260.695C260.695 34.8698 246.197 22.1484 229.679 22.1484V45.1484ZM237.695 52.8828H214.695C214.695 49.2954 216.128 45.1743 219.421 41.9827C222.659 38.8444 226.562 37.6875 229.679 37.6875V60.6875V83.6875C246.338 83.6875 260.695 70.83 260.695 52.8828H237.695ZM229.679 60.6875V37.6875H209.289V60.6875V83.6875H229.679V60.6875ZM209.289 60.6875H186.289V98.0938H209.289H232.289V60.6875H209.289ZM209.289 98.0938H186.289C186.289 105.178 188.132 113.899 194.624 121.066C201.385 128.531 210.315 131.148 218.008 131.148V108.148V85.1484C220.427 85.1484 224.998 86.0787 228.717 90.1856C232.168 93.9955 232.289 97.6892 232.289 98.0938H209.289ZM218.008 108.148V131.148C229.952 131.148 238.024 124.779 241.249 122.216L226.937 104.211L212.626 86.206C211.579 87.038 211.79 86.7616 212.627 86.3507C213.132 86.1026 213.892 85.7865 214.871 85.5393C215.869 85.2874 216.932 85.1484 218.008 85.1484V108.148ZM226.937 104.211L241.112 122.324C241.724 121.845 238.513 124.68 233.125 124.68V101.68V78.6797C222.533 78.6797 215.385 84.0458 212.762 86.0983L226.937 104.211ZM233.125 101.68V124.68C229.285 124.68 224.89 123.168 221.479 119.657C218.108 116.187 216.875 111.992 216.875 108.641H239.875H262.875C262.875 92.493 250.389 78.6797 233.125 78.6797V101.68ZM239.875 108.641H216.875C216.875 103.697 219.415 101.001 219.853 100.604L235.304 117.641L250.756 134.677C257.241 128.796 262.875 119.912 262.875 108.641H239.875ZM235.304 117.641L219.726 100.72C219.948 100.515 219.999 100.513 219.806 100.627C219.622 100.735 219.303 100.897 218.855 101.062C217.913 101.408 216.849 101.602 215.898 101.602V124.602V147.602C228.591 147.602 241.737 142.981 250.883 134.562L235.304 117.641ZM240.744 60.6875H263.744V37.6875H240.744V60.6875ZM240.744 45.1484V68.1484H263.744V45.1484H240.744ZM257.9 45.1484H234.9V68.1484H257.9V45.1484ZM257.9 60.6875V37.6875H234.9V60.6875H257.9ZM275.548 104.211L261.373 86.0983L261.305 86.1519L261.237 86.206L275.548 104.211ZM283.916 117.641L268.464 100.604L268.4 100.662L268.338 100.72L283.916 117.641ZM264.509 124.602V101.602C263.689 101.602 263.304 101.465 263.256 101.446C263.224 101.434 263.404 101.504 263.638 101.734C263.879 101.971 263.959 102.164 263.947 102.134C263.928 102.086 263.744 101.596 263.744 100.484H240.744H217.744C217.744 113.33 222.229 125.528 231.385 134.532C240.457 143.454 252.45 147.602 264.509 147.602V124.602ZM240.744 100.484H263.744V60.6875H240.744H217.744V100.484H240.744ZM240.744 60.6875V37.6875H230.197V60.6875V83.6875H240.744V60.6875ZM230.197 60.6875V37.6875C233.19 37.6875 237.075 38.7858 240.343 41.9335C243.672 45.1401 245.111 49.2897 245.111 52.8828H222.111H199.111C199.111 70.9611 213.604 83.6875 230.197 83.6875V60.6875ZM222.111 52.8828H245.111C245.111 56.6087 243.602 60.7743 240.29 63.9445C237.04 67.0546 233.187 68.1484 230.197 68.1484V45.1484V22.1484C213.745 22.1484 199.111 34.7393 199.111 52.8828H222.111ZM230.197 45.1484V68.1484H240.744V45.1484V22.1484H230.197V45.1484ZM240.744 45.1484H263.744V31.8594H240.744H217.744V45.1484H240.744ZM240.744 31.8594H263.744C263.744 34.6511 262.7 38.4019 259.617 41.5561C256.501 44.7439 252.581 46 249.392 46V23V0C241.141 0 232.897 3.08423 226.722 9.40091C220.58 15.6841 217.744 23.8645 217.744 31.8594H240.744ZM249.392 23V46C246.058 46 242.055 44.6634 238.932 41.4126C235.871 38.2261 234.9 34.5172 234.9 31.8594H257.9H280.9C280.9 23.9984 278.171 15.8598 272.104 9.54447C265.976 3.16474 257.718 0 249.392 0V23ZM257.9 31.8594H234.9V45.1484H257.9H280.9V31.8594H257.9ZM257.9 45.1484V68.1484H278.291V45.1484V22.1484H257.9V45.1484ZM278.291 45.1484V68.1484C275.178 68.1484 271.305 66.9964 268.085 63.8955C264.808 60.7401 263.306 56.6026 263.306 52.8828H286.306H309.306C309.306 34.8698 294.808 22.1484 278.291 22.1484V45.1484ZM286.306 52.8828H263.306C263.306 49.2954 264.739 45.1743 268.032 41.9827C271.27 38.8444 275.174 37.6875 278.291 37.6875V60.6875V83.6875C294.949 83.6875 309.306 70.83 309.306 52.8828H286.306ZM278.291 60.6875V37.6875H257.9V60.6875V83.6875H278.291V60.6875ZM257.9 60.6875H234.9V98.0938H257.9H280.9V60.6875H257.9ZM257.9 98.0938H234.9C234.9 105.178 236.743 113.899 243.235 121.066C249.996 128.531 258.926 131.148 266.619 131.148V108.148V85.1484C269.038 85.1484 273.609 86.0787 277.329 90.1856C280.779 93.9955 280.9 97.6892 280.9 98.0938H257.9ZM266.619 108.148V131.148C278.563 131.148 286.635 124.779 289.86 122.216L275.548 104.211L261.237 86.206C260.19 87.038 260.401 86.7616 261.238 86.3507C261.744 86.1026 262.503 85.7865 263.482 85.5393C264.48 85.2874 265.544 85.1484 266.619 85.1484V108.148ZM275.548 104.211L289.724 122.324C290.335 121.845 287.124 124.68 281.736 124.68V101.68V78.6797C271.145 78.6797 263.996 84.0458 261.373 86.0983L275.548 104.211ZM281.736 101.68V124.68C277.896 124.68 273.501 123.168 270.09 119.657C266.719 116.187 265.486 111.992 265.486 108.641H288.486H311.486C311.486 92.493 299 78.6797 281.736 78.6797V101.68ZM288.486 108.641H265.486C265.486 103.697 268.026 101.001 268.464 100.604L283.916 117.641L299.367 134.677C305.852 128.796 311.486 119.912 311.486 108.641H288.486ZM283.916 117.641L268.338 100.72C268.559 100.515 268.61 100.513 268.417 100.627C268.233 100.735 267.914 100.897 267.466 101.062C266.524 101.408 265.46 101.602 264.509 101.602V124.602V147.602C277.202 147.602 290.348 142.981 299.494 134.562L283.916 117.641ZM303.758 89.0234V66.0234H278.225L280.883 91.4173L303.758 89.0234ZM346.859 100.906L331.388 83.8876L330.145 85.0179L329.079 86.317L346.859 100.906ZM358.602 111.242L339.464 98.4841L339.453 98.5014L339.441 98.5186L358.602 111.242ZM303.758 75.1719L280.888 72.7267L278.168 98.1719H303.758V75.1719ZM346.016 75.1719V98.1719H371.695L368.877 72.6473L346.016 75.1719ZM327.875 124.602V101.602C320.257 101.602 316.057 99.2685 313.853 97.0998C311.692 94.9726 309.391 90.9848 309.391 83.6094H286.391H263.391C263.391 101.265 269.281 117.773 281.586 129.885C293.85 141.954 310.392 147.602 327.875 147.602V124.602ZM286.391 83.6094H309.391C309.391 76.6795 311.606 72.533 313.816 70.25C315.975 68.0189 319.586 66.0391 325.484 66.0391V43.0391V20.0391C308.32 20.0391 292.384 26.2507 280.763 38.2579C269.191 50.2131 263.391 66.3517 263.391 83.6094H286.391ZM325.484 43.0391V66.0391C331.828 66.0391 335.147 68.0272 336.785 69.6385C338.422 71.2495 340.102 74.1673 340.102 79.3203H363.102H386.102C386.102 63.3093 380.469 48.0864 369.046 36.8478C357.623 25.6096 342.133 20.0391 325.484 20.0391V43.0391ZM363.102 79.3203H340.102C340.102 79.2555 340.1 78.2564 340.588 76.7082C341.11 75.055 342.175 72.8479 344.174 70.7564C348.499 66.233 353.299 66.0234 353.961 66.0234V89.0234V112.023C360.67 112.023 370.04 110.267 377.424 102.544C384.614 95.0231 386.102 85.7989 386.102 79.3203H363.102ZM353.961 89.0234V66.0234H303.758V89.0234V112.023H353.961V89.0234ZM303.758 89.0234L280.883 91.4173C282.122 103.255 287.677 113.932 297.028 121.405C306.152 128.697 317.39 131.781 328.508 131.781V108.781V85.7812C325.704 85.7812 325.2 85.0339 325.746 85.4703C326.005 85.6774 326.288 86.0006 326.489 86.3776C326.686 86.7454 326.66 86.8925 326.633 86.6295L303.758 89.0234ZM328.508 108.781V131.781C341.98 131.781 354.938 127.32 364.64 115.496L346.859 100.906L329.079 86.317C328.99 86.4253 329.049 86.3333 329.273 86.1619C329.38 86.0803 329.505 85.9964 329.641 85.9169C329.778 85.8376 329.906 85.7751 330.016 85.7284C330.246 85.6308 330.308 85.6399 330.103 85.6763C329.882 85.7156 329.378 85.7812 328.508 85.7812V108.781ZM346.859 100.906L362.331 117.925C362.534 117.741 361.854 118.413 360.41 119.109C358.749 119.91 356.669 120.461 354.453 120.461V97.4609V74.4609C343.411 74.4609 335.783 79.892 331.388 83.8876L346.859 100.906ZM354.453 97.4609V120.461C352.022 120.461 346.677 119.571 342.302 114.663C338.34 110.217 338.062 105.662 338.062 104.422H361.062H384.062C384.062 98.963 382.766 90.9271 376.641 84.0559C370.105 76.7217 361.455 74.4609 354.453 74.4609V97.4609ZM361.062 104.422H338.062C338.062 102.135 338.57 100.499 338.871 99.7096C339.178 98.9053 339.453 98.5018 339.464 98.4841L358.602 111.242L377.739 124C380.263 120.213 384.062 113.28 384.062 104.422H361.062ZM358.602 111.242L339.441 98.5186C339.62 98.2499 339.186 99.063 336.864 100.014C334.579 100.951 331.407 101.602 327.875 101.602V124.602V147.602C343.875 147.602 365.727 142.088 377.762 123.966L358.602 111.242ZM303.758 75.1719V98.1719H346.016V75.1719V52.1719H303.758V75.1719ZM346.016 75.1719L368.877 72.6473C367.696 61.9565 363.057 51.7189 354.317 44.2843C345.705 36.9591 335.094 34.0312 324.852 34.0312V57.0312V80.0312C325.679 80.0312 325.945 80.1479 325.791 80.0972C325.61 80.0374 325.106 79.8275 324.513 79.3231C323.909 78.8093 323.493 78.2274 323.26 77.7599C323.041 77.3212 323.103 77.2267 323.155 77.6964L346.016 75.1719ZM324.852 57.0312V34.0312C314.411 34.0312 303.874 37.198 295.418 44.4374C286.863 51.7614 282.046 61.8936 280.888 72.7267L303.758 75.1719L326.627 77.6171C326.655 77.3583 326.675 77.5364 326.454 77.9758C326.225 78.4303 325.847 78.9419 325.334 79.381C324.829 79.8133 324.394 80.0045 324.209 80.0676C324.04 80.125 324.217 80.0312 324.852 80.0312V57.0312ZM384.986 53.4453H361.986V130.77L404.247 66.0157L384.986 53.4453ZM419.65 48.0312L435.521 31.3853L435.433 31.3007L435.343 31.217L419.65 48.0312ZM408.611 63.8516L426.169 48.9949L426.015 48.813L425.857 48.6343L408.611 63.8516ZM384.986 81.2188H361.986V115.18H384.986H407.986V81.2188H384.986ZM384.986 115.18H361.986C361.986 112.522 362.956 108.813 366.017 105.626C369.14 102.376 373.144 101.039 376.478 101.039V124.039V147.039C384.804 147.039 393.061 143.874 399.19 137.495C405.257 131.179 407.986 123.041 407.986 115.18H384.986ZM376.478 124.039V101.039C379.667 101.039 383.586 102.295 386.702 105.483C389.786 108.637 390.829 112.388 390.829 115.18H367.829H344.829C344.829 123.175 347.666 131.355 353.808 137.638C359.983 143.955 368.226 147.039 376.478 147.039V124.039ZM367.829 115.18H390.829V52.4609H367.829H344.829V115.18H367.829ZM367.829 52.4609H390.829C390.829 55.1377 389.838 58.8702 386.747 62.05C383.618 65.2698 379.672 66.5312 376.478 66.5312V43.5312V20.5312C368.221 20.5312 359.951 23.6208 353.763 29.9871C347.613 36.3134 344.829 44.5107 344.829 52.4609H367.829ZM376.478 43.5312V66.5312C373.139 66.5312 369.109 65.1889 365.973 61.9061C362.906 58.6952 361.986 55.0051 361.986 52.4609H384.986H407.986C407.986 44.6433 405.308 36.4884 399.235 30.131C393.093 23.7018 384.809 20.5312 376.478 20.5312V43.5312ZM384.986 52.4609H361.986V53.4453H384.986H407.986V52.4609H384.986ZM384.986 53.4453L404.247 66.0157C404.257 66 404.231 66.0408 404.164 66.101C404.098 66.1605 404.042 66.194 404.023 66.2036C403.962 66.235 404.294 66.0391 405.236 66.0391V43.0391V20.0391C389.688 20.0391 374.75 27.0455 365.725 40.875L384.986 53.4453ZM405.236 43.0391V66.0391C405.87 66.0391 406.015 66.1417 405.768 66.0521C405.543 65.9705 404.841 65.6708 403.956 64.8455L419.65 48.0312L435.343 31.217C427.273 23.6845 416.369 20.0391 405.236 20.0391V43.0391ZM419.65 48.0312L403.778 64.6772C403.386 64.3034 402.733 63.5474 402.18 62.3359C401.612 61.0915 401.29 59.6665 401.29 58.2266H424.29H447.29C447.29 47.3752 442.512 38.0511 435.521 31.3853L419.65 48.0312ZM424.29 58.2266H401.29C401.29 56.7768 401.729 53.201 404.869 49.6895C408.303 45.8484 412.687 44.6484 415.572 44.6484V67.6484V90.6484C424.011 90.6484 432.754 87.5149 439.159 80.3515C445.27 73.5177 447.29 65.231 447.29 58.2266H424.29ZM415.572 67.6484V44.6484C419.331 44.6484 422.092 45.9137 423.569 46.8173C424.988 47.6854 425.789 48.5467 426.169 48.9949L408.611 63.8516L391.053 78.7082C394.156 82.3761 402.458 90.6484 415.572 90.6484V67.6484ZM408.611 63.8516L425.857 48.6343C420.649 42.7317 411.847 36.5625 399.611 36.5625V59.5625V82.5625C397.727 82.5625 395.839 82.0729 394.223 81.2362C392.718 80.4571 391.806 79.5693 391.364 79.0689L408.611 63.8516ZM399.611 59.5625V36.5625C387.121 36.5625 376.87 43.0521 370.526 51.9668C364.431 60.533 361.986 70.976 361.986 81.2188H384.986H407.986C407.986 77.8912 408.81 77.5061 408.006 78.6367C407.564 79.2573 406.644 80.2789 405.065 81.1543C403.436 82.0568 401.529 82.5625 399.611 82.5625V59.5625ZM447.789 54.0078H424.789V129.352L466.868 66.853L447.789 54.0078ZM439.281 124.039V101.039C442.47 101.039 446.389 102.295 449.505 105.483C452.589 108.637 453.633 112.388 453.633 115.18H430.633H407.633C407.633 123.175 410.469 131.355 416.611 137.638C422.786 143.955 431.029 147.039 439.281 147.039V124.039ZM430.633 115.18H453.633V52.4609H430.633H407.633V115.18H430.633ZM430.633 52.4609H453.633C453.633 55.1377 452.641 58.8702 449.55 62.05C446.421 65.2698 442.475 66.5312 439.281 66.5312V43.5312V20.5312C431.024 20.5312 422.755 23.6208 416.566 29.9871C410.416 36.3134 407.633 44.5107 407.633 52.4609H430.633ZM439.281 43.5312V66.5312C435.942 66.5312 431.912 65.1889 428.776 61.9061C425.709 58.6952 424.789 55.0051 424.789 52.4609H447.789H470.789C470.789 44.6433 468.111 36.4884 462.038 30.131C455.896 23.7018 447.612 20.5312 439.281 20.5312V43.5312ZM447.789 52.4609H424.789V54.0078H447.789H470.789V52.4609H447.789ZM447.789 54.0078L466.868 66.853C466.642 67.1881 466.527 67.0923 467.129 66.8202C467.812 66.5118 469.336 66.0391 471.906 66.0391V43.0391V20.0391C456.02 20.0391 438.944 25.9616 428.71 41.1627L447.789 54.0078ZM471.906 43.0391V66.0391C476.604 66.0391 478.094 67.4024 478.42 67.7346C478.772 68.0938 480.476 70.04 480.476 76.0859H503.476H526.476C526.476 60.9678 521.922 46.3906 511.253 35.5174C500.558 24.6171 486.263 20.0391 471.906 20.0391V43.0391ZM503.476 76.0859H480.476V115.18H503.476H526.476V76.0859H503.476ZM503.476 115.18H480.476C480.476 112.295 481.553 108.621 484.521 105.55C487.538 102.428 491.458 101.039 494.898 101.039V124.039V147.039C513.326 147.039 526.476 132.27 526.476 115.18H503.476ZM494.898 124.039V101.039C498.366 101.039 502.321 102.459 505.339 105.618C508.271 108.686 509.32 112.325 509.32 115.18H486.32H463.32C463.32 131.948 476.159 147.039 494.898 147.039V124.039ZM486.32 115.18H509.32V79.1094H486.32H463.32V115.18H486.32ZM486.32 79.1094H509.32C509.32 68.6056 506.64 57.0927 498.236 48.1018C489.616 38.8804 478.246 35.7891 468.109 35.7891V58.7891V81.7891C468.705 81.7891 468.45 81.8796 467.66 81.5846C466.78 81.2562 465.641 80.5945 464.631 79.5134C462.52 77.2549 463.32 75.9022 463.32 79.1094H486.32ZM468.109 58.7891V35.7891C456.306 35.7891 444.81 40.002 436.388 49.0578C428.145 57.9199 424.789 69.3114 424.789 80.3047H447.789H470.789C470.789 79.3779 470.929 79.0391 470.891 79.147C470.843 79.281 470.629 79.7851 470.071 80.3856C469.497 81.0028 468.83 81.4274 468.268 81.6554C467.737 81.8709 467.607 81.7891 468.109 81.7891V58.7891ZM447.789 80.3047H424.789V115.18H447.789H470.789V80.3047H447.789ZM447.789 115.18H424.789C424.789 112.522 425.759 108.813 428.821 105.626C431.944 102.376 435.947 101.039 439.281 101.039V124.039V147.039C447.607 147.039 455.864 143.874 461.993 137.495C468.06 131.179 470.789 123.041 470.789 115.18H447.789Z" fill="url(#paint1_linear_15_2608)" mask="url(#path-1-outside-1_15_2608)"/>
<defs>
<linearGradient id="paint0_linear_15_2608" x1="263.086" y1="-14.5078" x2="263.086" y2="159.492" gradientUnits="userSpaceOnUse">
<stop stop-color="#3B3B3B"/>
<stop offset="1" stop-color="#FFE522"/>
</linearGradient>
<linearGradient id="paint1_linear_15_2608" x1="263.086" y1="-14.5078" x2="263.086" y2="159.492" gradientUnits="userSpaceOnUse">
<stop stop-color="#FFB6F2"/>
<stop offset="1" stop-color="#DCFF51"/>
</linearGradient>
</defs>
</svg>
